<svg  xmlns="http://www.w3.org/2000/svg" width="100%" height="100%" viewbox="0 0 64 64"
  class="svg_icon">
  <polygon points="32,32 32,0 47,0"   fill="hsl( 0, 0%, 0%)" />
  <polygon points="32,32 47,0 64,0"   fill="hsl( 0, 0%, 7%)" />
  <polygon points="32,32 64,0 64,17"  fill="hsl( 0, 0%, 13%)" />
  <polygon points="32,32 64,17 64,32" fill="hsl( 0, 0%, 20%)" />
  <polygon points="32,32 64,32 64,47" fill="hsl( 0, 0%, 26%)" />
  <polygon points="32,32 64,47 64,64" fill="hsl( 0, 0%, 33%)" />
  <polygon points="32,32 64,64 47,64" fill="hsl( 0, 0%, 39%)" />
  <polygon points="32,32 47,64 32,64" fill="hsl( 0, 0%, 46%)" />
  <polygon points="32,32 32,64 17,64" fill="hsl( 0, 0%, 52%)" />
  <polygon points="32,32 17,64 0,64"  fill="hsl( 0, 0%, 59%)" />
  <polygon points="32,32 0,64  0,47"  fill="hsl( 0, 0%, 65%)" />
  <polygon points="32,32 0,47  0,32"  fill="hsl( 0, 0%, 72%)" />
  <polygon points="32,32 0,32 0,17"   fill="hsl( 0, 0%, 78%)" />
  <polygon points="32,32 0,17 0,0"    fill="hsl( 0, 0%, 85%)" />
  <polygon points="32,32 0,0 17,0"    fill="hsl( 0, 0%, 92%)" />
  <polygon points="32,32 17,0 32,0"   fill="hsl( 0, 0%, 100%)" />
</svg>