<svg  xmlns="http://www.w3.org/2000/svg" width="100%" height="100%" viewbox="0 0 64 64"
  class="svg_icon">
  <polygon points="32,32 32,0 47,0" fill="hsl( 0, 100%, 50%)" />
  <polygon points="32,32 47,0 64,0" fill="hsl( 22, 100%, 50%)" />
  <polygon points="32,32 64,0 64,17"  fill="hsl( 45, 100%, 50%)" />
  <polygon points="32,32 64,17 64,32" fill="hsl( 67, 100%, 50%)" />
  <polygon points="32,32 64,32 64,47" fill="hsl( 90, 100%, 50%)" />
  <polygon points="32,32 64,47 64,64" fill="hsl( 112, 100%, 50%)" />
  <polygon points="32,32 64,64 47,64" fill="hsl( 135, 100%, 50%)" />
  <polygon points="32,32 47,64 32,64" fill="hsl( 157, 100%, 50%)" />
  <polygon points="32,32 32,64 17,64" fill="hsl( 180, 100%, 50%)" />
  <polygon points="32,32 17,64 0,64"  fill="hsl( 202, 100%, 50%)" />
  <polygon points="32,32 0,64  0,47" fill="hsl( 225, 100%, 50%)" />
  <polygon points="32,32 0,47  0,32" fill="hsl( 247, 100%, 50%)" />
  <polygon points="32,32 0,32 0,17" fill="hsl( 270, 100%, 50%)" />
  <polygon points="32,32 0,17 0,0"  fill="hsl( 292, 100%, 50%)" />
  <polygon points="32,32 0,0 17,0"  fill="hsl( 315, 100%, 50%)" />
  <polygon points="32,32 17,0 32,0" fill="hsl( 337, 100%, 50%)" />
  <g
    fill="none" stroke="hsl(34, 17%, 100%)" stroke-width="4" stroke-linecap="square" stroke-linejoin="arcs">
    <line x1="12" y1="32" x2="28" y2="32" /><line x1="36" y1="32" x2="52" y2="32" />
    <line y1="12" x1="32" y2="28" x2="32" /><line y1="36" x1="32" y2="52" x2="32" />
  </g>
  <g transform="rotate( 45, 32, 32)"
    fill="none" stroke="hsl(34, 17%, 100%)" stroke-width="4" stroke-linecap="square" stroke-linejoin="arcs">
    <line x1="12" y1="32" x2="24" y2="32" /><line x1="40" y1="32" x2="52" y2="32" />
    <line y1="12" x1="32" y2="24" x2="32" /><line y1="40" x1="32" y2="52" x2="32" />
  </g>
</svg>
