<?xml version="1.0" encoding="UTF-8"?>
<svg width="192px" height="224px" viewBox="0 0 192 224" version="1.1" xmlns="http://www.w3.org/2000/svg" xmlns:xlink="http://www.w3.org/1999/xlink">
    <!-- Generator: Sketch 41.2 (35397) - http://www.bohemiancoding.com/sketch -->
    <title>l - black</title>
    <desc>Created with Sketch.</desc>
    <defs></defs>
    <g id="Page-1" stroke="none" stroke-width="1" fill="none" fill-rule="evenodd">
        <g id="l---black" fill="#202020">
            <path d="M120.470588,192 L176.001508,192 C184.82379,192 192,184.837231 192,176.001508 L192,15.9984916 C192,7.17620981 184.837231,0 176.001508,0 L15.9984916,0 C7.17620981,0 0,7.16276867 0,15.9984916 L0,176.001508 C0,184.82379 7.16276867,192 15.9984916,192 L71.5294118,192 L96,224 L120.470588,192 L120.470588,192 Z M56.0649035,32 L32,32 L32,160 L56.0649035,160 L56.0649035,124.02318 C56.0649033,104.870293 64,98 72,96 C80,94 88.1514416,98.4853708 88.1514416,112.027816 L88.1514416,160 L112.216345,160 L112.216345,104.870289 C112.216347,80 96,72.0247231 80,72.0247252 C64.0865381,72.0247273 56.0649033,88.0154533 56.0649035,88.0154532 L56.0649035,32 Z M152,159.895201 C160.836556,159.895201 168,152.755217 168,143.947601 C168,135.139984 160.836556,128 152,128 C143.163444,128 136,135.139984 136,143.947601 C136,152.755217 143.163444,159.895201 152,159.895201 Z" id="Rectangle-2-Copy-18"></path>
        </g>
    </g>
</svg>